#N canvas 827 239 527 327 12;
#X obj 279 75 else/display;
#X obj 286 373 hsl 136 16 0 1 0 0 empty empty empty -2 -8 0 10 #dfdfdf #000000 #000000 0 1;
#X obj 281 425 else/osc.send 8013;
#X obj 79 75 else/display -noflash;
#X obj 79 43 else/midi.in;
#X msg 281 400 /fromPlugdata \$1;
#X obj 340 184 adc~;
#X obj 340 279 dac~;
#X obj 279 43 else/osc.receive 8012;
#X floatatom 489 75 5 0 0 0 - - - 12;
#X obj 489 43 param MyInput;
#X obj 79 184 playhead;
#X obj 86 247 midi.clock;
#X obj 86 292 bng 25 250 50 0 empty empty empty 17 7 0 10 #e4e4e4 #4d4d4d #373737;
#X floatatom 132 292 5 0 0 0 - - - 0;
#X connect 1 0 5 0;
#X connect 4 0 3 0;
#X connect 5 0 2 0;
#X connect 6 0 7 0;
#X connect 6 1 7 1;
#X connect 8 0 0 0;
#X connect 10 0 9 0;
#X connect 12 0 13 0;
#X connect 12 1 14 0;
